<svg width="24" height="37" viewBox="0 0 24 37" fill="none" xmlns="http://www.w3.org/2000/svg">
<path d="M14 3C14 2.44772 14.4477 2 15 2H19C19.7957 2 20.5587 2.31607 21.1213 2.87868C21.6839 3.44129 22 4.20435 22 5V19C22 19.7957 21.6839 20.5587 21.1213 21.1213C20.5587 21.6839 19.7957 22 19 22H15C14.4477 22 14 21.5523 14 21C14 20.4477 14.4477 20 15 20H19C19.2652 20 19.5196 19.8946 19.7071 19.7071C19.8946 19.5196 20 19.2652 20 19V5C20 4.73478 19.8946 4.48043 19.7071 4.29289C19.5196 4.10536 19.2652 4 19 4H15C14.4477 4 14 3.55228 14 3Z" fill="white"/>
<path d="M9.29289 6.29289C9.68342 5.90237 10.3166 5.90237 10.7071 6.29289L15.7071 11.2929C16.0976 11.6834 16.0976 12.3166 15.7071 12.7071L10.7071 17.7071C10.3166 18.0976 9.68342 18.0976 9.29289 17.7071C8.90237 17.3166 8.90237 16.6834 9.29289 16.2929L12.5858 13H3C2.44772 13 2 12.5523 2 12C2 11.4477 2.44772 11 3 11H12.5858L9.29289 7.70711C8.90237 7.31658 8.90237 6.68342 9.29289 6.29289Z" fill="white"/>
<path d="M2.45 25.07H3.97V30.74H5.82V32H2.45V25.07ZM8.53719 27.66C8.53719 27.4067 8.39719 27.28 8.11719 27.28C7.83719 27.28 7.69719 27.4067 7.69719 27.66V30.44C7.69719 30.6933 7.83719 30.82 8.11719 30.82C8.39719 30.82 8.53719 30.6933 8.53719 30.44V27.66ZM6.21719 27.61C6.21719 27.1033 6.37385 26.71 6.68719 26.43C7.00719 26.1433 7.48385 26 8.11719 26C8.75052 26 9.22385 26.1433 9.53719 26.43C9.85719 26.71 10.0172 27.1033 10.0172 27.61V30.49C10.0172 30.9967 9.85719 31.3933 9.53719 31.68C9.22385 31.96 8.75052 32.1 8.11719 32.1C7.48385 32.1 7.00719 31.96 6.68719 31.68C6.37385 31.3933 6.21719 30.9967 6.21719 30.49V27.61ZM14.8791 26.75H14.5291C14.4758 26.75 14.4025 26.7567 14.3091 26.77C14.4358 26.9833 14.4991 27.25 14.4991 27.57V28.43C14.4991 28.9233 14.3458 29.3067 14.0391 29.58C13.7325 29.8533 13.2691 29.9967 12.6491 30.01C12.4758 30.01 12.3891 30.0833 12.3891 30.23C12.3891 30.3167 12.4158 30.3767 12.4691 30.41C12.5291 30.4367 12.6358 30.45 12.7891 30.45H13.3391C13.8525 30.45 14.2325 30.5533 14.4791 30.76C14.7325 30.96 14.8591 31.2767 14.8591 31.71V31.96C14.8591 32.4467 14.6825 32.8233 14.3291 33.09C13.9758 33.3633 13.4491 33.5 12.7491 33.5H12.3791C11.9525 33.5 11.5758 33.4533 11.2491 33.36C10.9225 33.2733 10.6791 33.1733 10.5191 33.06V31.69C10.7058 31.8367 10.9658 31.9633 11.2991 32.07C11.6325 32.1833 11.9791 32.24 12.3391 32.24H12.5491C12.8958 32.24 13.1325 32.2133 13.2591 32.16C13.3925 32.1133 13.4591 32.0333 13.4591 31.92V31.87C13.4591 31.7367 13.3458 31.67 13.1191 31.67H12.5091C12.0291 31.67 11.6691 31.6 11.4291 31.46C11.1891 31.32 11.0691 31.0933 11.0691 30.78V30.62C11.0691 30.2 11.2558 29.9567 11.6291 29.89C10.9425 29.6633 10.5991 29.1767 10.5991 28.43V27.57C10.5991 27.07 10.7591 26.6833 11.0791 26.41C11.4058 26.1367 11.8958 26 12.5491 26C12.9825 26 13.3458 26.06 13.6391 26.18C13.7925 25.6667 14.1525 25.41 14.7191 25.41H14.8791V26.75ZM12.9991 28.42V27.58C12.9991 27.32 12.8491 27.19 12.5491 27.19C12.2491 27.19 12.0991 27.32 12.0991 27.58V28.42C12.0991 28.68 12.2491 28.81 12.5491 28.81C12.8491 28.81 12.9991 28.68 12.9991 28.42ZM16.1297 25.93C15.5764 25.93 15.2997 25.67 15.2997 25.15C15.2997 24.6233 15.5764 24.36 16.1297 24.36C16.6897 24.36 16.9697 24.6233 16.9697 25.15C16.9697 25.67 16.6897 25.93 16.1297 25.93ZM15.3797 26.26H16.8897V32H15.3797V26.26ZM19.2118 26.36C19.5651 26.1667 19.9318 26.07 20.3118 26.07C20.6918 26.07 20.9951 26.1767 21.2218 26.39C21.4551 26.5967 21.5718 26.91 21.5718 27.33V32H20.0418V27.7C20.0418 27.54 19.9551 27.46 19.7818 27.46C19.6085 27.46 19.4485 27.5033 19.3018 27.59V32H17.7918V26.1H19.2118V26.36Z" fill="white"/>
</svg>
