<svg width="26" height="37" viewBox="0 0 26 37" fill="none" xmlns="http://www.w3.org/2000/svg">
<path fill-rule="evenodd" clip-rule="evenodd" d="M6 4C5.73478 4 5.48043 4.10536 5.29289 4.29289C5.10536 4.48043 5 4.73478 5 5V19C5 19.2652 5.10536 19.5196 5.29289 19.7071C5.48043 19.8946 5.73478 20 6 20H10C10.5523 20 11 20.4477 11 21C11 21.5523 10.5523 22 10 22H6C5.20435 22 4.44129 21.6839 3.87868 21.1213C3.31607 20.5587 3 19.7957 3 19V5C3 4.20435 3.31607 3.44129 3.87868 2.87868C4.44129 2.31607 5.20435 2 6 2H10C10.5523 2 11 2.44772 11 3C11 3.55228 10.5523 4 10 4H6ZM16.2929 6.29289C16.6834 5.90237 17.3166 5.90237 17.7071 6.29289L22.7071 11.2929C23.0976 11.6834 23.0976 12.3166 22.7071 12.7071L17.7071 17.7071C17.3166 18.0976 16.6834 18.0976 16.2929 17.7071C15.9024 17.3166 15.9024 16.6834 16.2929 16.2929L19.5858 13H10C9.44772 13 9 12.5523 9 12C9 11.4477 9.44772 11 10 11H19.5858L16.2929 7.70711C15.9024 7.31658 15.9024 6.68342 16.2929 6.29289Z" fill="white"/>
<path d="M0.45 25.07H1.97V30.74H3.82V32H0.45V25.07ZM6.53719 27.66C6.53719 27.4067 6.39719 27.28 6.11719 27.28C5.83719 27.28 5.69719 27.4067 5.69719 27.66V30.44C5.69719 30.6933 5.83719 30.82 6.11719 30.82C6.39719 30.82 6.53719 30.6933 6.53719 30.44V27.66ZM4.21719 27.61C4.21719 27.1033 4.37385 26.71 4.68719 26.43C5.00719 26.1433 5.48385 26 6.11719 26C6.75052 26 7.22385 26.1433 7.53719 26.43C7.85719 26.71 8.01719 27.1033 8.01719 27.61V30.49C8.01719 30.9967 7.85719 31.3933 7.53719 31.68C7.22385 31.96 6.75052 32.1 6.11719 32.1C5.48385 32.1 5.00719 31.96 4.68719 31.68C4.37385 31.3933 4.21719 30.9967 4.21719 30.49V27.61ZM12.8791 26.75H12.5291C12.4758 26.75 12.4025 26.7567 12.3091 26.77C12.4358 26.9833 12.4991 27.25 12.4991 27.57V28.43C12.4991 28.9233 12.3458 29.3067 12.0391 29.58C11.7325 29.8533 11.2691 29.9967 10.6491 30.01C10.4758 30.01 10.3891 30.0833 10.3891 30.23C10.3891 30.3167 10.4158 30.3767 10.4691 30.41C10.5291 30.4367 10.6358 30.45 10.7891 30.45H11.3391C11.8525 30.45 12.2325 30.5533 12.4791 30.76C12.7325 30.96 12.8591 31.2767 12.8591 31.71V31.96C12.8591 32.4467 12.6825 32.8233 12.3291 33.09C11.9758 33.3633 11.4491 33.5 10.7491 33.5H10.3791C9.95247 33.5 9.57581 33.4533 9.24914 33.36C8.92247 33.2733 8.67914 33.1733 8.51914 33.06V31.69C8.70581 31.8367 8.96581 31.9633 9.29914 32.07C9.63247 32.1833 9.97914 32.24 10.3391 32.24H10.5491C10.8958 32.24 11.1325 32.2133 11.2591 32.16C11.3925 32.1133 11.4591 32.0333 11.4591 31.92V31.87C11.4591 31.7367 11.3458 31.67 11.1191 31.67H10.5091C10.0291 31.67 9.66914 31.6 9.42914 31.46C9.18914 31.32 9.06914 31.0933 9.06914 30.78V30.62C9.06914 30.2 9.25581 29.9567 9.62914 29.89C8.94247 29.6633 8.59914 29.1767 8.59914 28.43V27.57C8.59914 27.07 8.75914 26.6833 9.07914 26.41C9.40581 26.1367 9.89581 26 10.5491 26C10.9825 26 11.3458 26.06 11.6391 26.18C11.7925 25.6667 12.1525 25.41 12.7191 25.41H12.8791V26.75ZM10.9991 28.42V27.58C10.9991 27.32 10.8491 27.19 10.5491 27.19C10.2491 27.19 10.0991 27.32 10.0991 27.58V28.42C10.0991 28.68 10.2491 28.81 10.5491 28.81C10.8491 28.81 10.9991 28.68 10.9991 28.42ZM15.5997 27.66C15.5997 27.4067 15.4597 27.28 15.1797 27.28C14.8997 27.28 14.7597 27.4067 14.7597 27.66V30.44C14.7597 30.6933 14.8997 30.82 15.1797 30.82C15.4597 30.82 15.5997 30.6933 15.5997 30.44V27.66ZM13.2797 27.61C13.2797 27.1033 13.4364 26.71 13.7497 26.43C14.0697 26.1433 14.5464 26 15.1797 26C15.813 26 16.2864 26.1433 16.5997 26.43C16.9197 26.71 17.0797 27.1033 17.0797 27.61V30.49C17.0797 30.9967 16.9197 31.3933 16.5997 31.68C16.2864 31.96 15.813 32.1 15.1797 32.1C14.5464 32.1 14.0697 31.96 13.7497 31.68C13.4364 31.3933 13.2797 30.9967 13.2797 30.49V27.61ZM20.1416 26.1H21.6516V32H20.2316V31.73C19.905 31.91 19.5316 32 19.1116 32C18.6983 32 18.3816 31.8867 18.1616 31.66C17.9416 31.4333 17.8316 31.1067 17.8316 30.68V26.1H19.3616V30.38C19.3616 30.5533 19.4583 30.64 19.6516 30.64C19.845 30.64 20.0083 30.6 20.1416 30.52V26.1ZM24.5696 30.73C24.7763 30.73 24.9663 30.6833 25.1396 30.59V31.93C24.9129 32.0367 24.6163 32.09 24.2496 32.09C23.6829 32.09 23.2796 31.9567 23.0396 31.69C22.7996 31.4233 22.6796 31.0367 22.6796 30.53V27.37H22.1496V26.1H22.7496L23.2096 25.08H24.1896V26.1H25.0796V27.37H24.1896V30.37C24.1896 30.61 24.3163 30.73 24.5696 30.73Z" fill="white"/>
</svg>
