<svg width="300" height="300" viewBox="0 0 300 300" fill="none" xmlns="http://www.w3.org/2000/svg">
<rect width="300" height="300" fill="#EDEDED"/>
<g clip-path="url(#clip0_112_4588)">
<path d="M150 153.2C151.767 153.2 153.2 151.767 153.2 150C153.2 148.233 151.767 146.8 150 146.8C148.232 146.8 146.8 148.233 146.8 150C146.8 151.767 148.232 153.2 150 153.2Z" fill="black"/>
<path d="M147 140L145.17 142H142C140.9 142 140 142.9 140 144V156C140 157.1 140.9 158 142 158H158C159.1 158 160 157.1 160 156V144C160 142.9 159.1 142 158 142H154.83L153 140H147ZM150 155C147.24 155 145 152.76 145 150C145 147.24 147.24 145 150 145C152.76 145 155 147.24 155 150C155 152.76 152.76 155 150 155Z" fill="black"/>
</g>
<defs>
<clipPath id="clip0_112_4588">
<rect width="24" height="24" fill="white" transform="translate(138 138)"/>
</clipPath>
</defs>
</svg>
